<!--?xml version="1.0" standalone="no"?-->
              <svg id="sw-js-blob-svg" viewBox="0 0 100 100" xmlns="http://www.w3.org/2000/svg" version="1.1">
                    <defs> 
                        <linearGradient id="sw-gradient" x1="0" x2="1" y1="1" y2="0">
                            <stop id="stop1" stop-color="rgba(247, 128, 30, 1)" offset="0%"></stop>
                            <stop id="stop2" stop-color="rgba(251, 168, 31, 1)" offset="100%"></stop>
                        </linearGradient>
                    </defs>
                <path fill="url(#sw-gradient)" d="M21.3,-26.8C22.3,-24.7,13.9,-12.8,10.5,-5.8C7,1.2,8.4,3.4,9.8,10.2C11.3,17,12.9,28.4,10.4,29.8C8,31.1,1.5,22.5,-4.2,17.8C-9.9,13.1,-14.8,12.2,-21.9,8.5C-29,4.8,-38.4,-1.8,-36.5,-5.3C-34.6,-8.8,-21.3,-9.2,-13.4,-10.1C-5.4,-11,-2.7,-12.3,3.8,-16.8C10.2,-21.3,20.4,-28.9,21.3,-26.8Z" width="100%" height="100%" transform="translate(50 50)" stroke-width="0" style="transition: all 0.3s ease 0s;" stroke="url(#sw-gradient)"></path>
              </svg>